<svg width="18" height="18" viewBox="0 0 18 18" fill="none" xmlns="http://www.w3.org/2000/svg">
<path d="M8.55032 0C7.31296 0 6.30024 1.01269 6.30024 2.25C6.30024 2.75703 6.47486 3.22267 6.7608 3.6H6.75025C5.5129 3.6 4.50017 4.61269 4.50017 5.85V9.45C4.50017 10.5326 5.27746 11.4435 6.30024 11.6543V16.65C6.30024 17.3956 6.90467 18 7.65029 18H9.45035C9.794 18 10.1033 17.8669 10.3416 17.6555L9.69997 17.0139C9.62756 17.0637 9.54488 17.1 9.45035 17.1H9.00034V16.3143L8.50286 15.8168C8.2975 15.6196 8.15216 15.342 8.1003 15.0609V17.1H7.65029C7.40175 17.1 7.20027 16.8985 7.20027 16.65V6.75C7.20027 6.50147 6.99879 6.3 6.75025 6.3C6.50172 6.3 6.30024 6.50147 6.30024 6.75V10.7191C5.77479 10.535 5.4002 10.0419 5.4002 9.45V5.85C5.4002 5.09908 5.99931 4.5 6.75025 4.5H6.7608C7.25788 4.5 7.66083 4.09706 7.66083 3.6C7.66033 3.40446 7.59662 3.2141 7.4534 3.02168C7.31019 2.82926 7.20027 2.55759 7.20027 2.25C7.20027 1.49909 7.79938 0.9 8.55032 0.9C9.30126 0.9 9.90037 1.49909 9.90037 2.25C9.90037 2.55759 9.79047 2.82926 9.64724 3.02168C9.504 3.2141 9.44031 3.40446 9.43981 3.6C9.43981 4.09706 9.84277 4.5 10.3398 4.5H10.3504C11.1013 4.5 11.7004 5.09908 11.7004 5.85V9.45C11.7004 10.0419 11.3258 10.535 10.8004 10.7191V6.75C10.8004 6.50147 10.5989 6.3 10.3504 6.3C10.1019 6.3 9.90037 6.50147 9.90037 6.75V13.5773C10.0931 13.6506 10.2725 13.7626 10.4119 13.9078L10.8004 14.2963V11.6543H10.8022C11.8248 11.4435 12.6005 10.5326 12.6005 9.45V5.85C12.6005 4.61269 11.5877 3.6 10.3504 3.6H10.3398C10.6258 3.22267 10.8004 2.75703 10.8004 2.25C10.8004 1.01269 9.78768 0 8.55032 0ZM4.05015 0.9C3.85677 0.9 3.67231 0.932639 3.4929 0.979102C3.46903 0.985591 3.44616 0.992942 3.42259 1.0002C3.25114 1.05071 3.08946 1.11985 2.93741 1.20762C2.26249 1.59722 1.80007 2.31896 1.80007 3.15C1.80007 3.65703 1.97469 4.12267 2.26063 4.5H2.25008C1.01273 4.5 0 5.51269 0 6.75V9.45C0 10.5326 0.775746 11.4435 1.79831 11.6543H1.80007V14.85C1.80007 15.5956 2.40451 16.2 3.15012 16.2H4.50017H5.4002V15.3H4.50017V13.4191V12.15C4.50017 11.9015 4.29869 11.7 4.05015 11.7C3.80161 11.7 3.60014 11.9015 3.60014 12.15V15.3H3.15012C2.90158 15.3 2.7001 15.0985 2.7001 14.85V7.65C2.7001 7.40147 2.49862 7.2 2.25008 7.2C2.00155 7.2 1.80007 7.40147 1.80007 7.65V10.7191C1.27462 10.535 0.900034 10.0419 0.900034 9.45V6.75C0.900034 5.99908 1.49914 5.4 2.25008 5.4H2.26063C2.75771 5.4 3.16067 4.99706 3.16067 4.5C3.16015 4.30446 3.09652 4.1141 2.95324 3.92168C2.80996 3.72926 2.7001 3.45759 2.7001 3.15C2.7001 2.39909 3.29921 1.8 4.05015 1.8C4.30947 1.8 4.54777 1.8733 4.68475 1.95645C4.82172 2.03959 4.90276 2.06328 4.98534 2.06367C5.23388 2.06367 5.43536 1.8622 5.43536 1.61367C5.43532 1.47736 5.37062 1.35681 5.29649 1.29551C5.22235 1.2342 5.19524 1.22049 5.1664 1.20762C4.83616 1.01576 4.45764 0.9 4.05015 0.9ZM13.0505 0.9C12.643 0.9 12.2645 1.01576 11.9342 1.20762C11.9054 1.22049 11.8783 1.2342 11.8042 1.29551C11.73 1.35681 11.6653 1.47736 11.6653 1.61367C11.6653 1.8622 11.8668 2.06367 12.1153 2.06367C12.1979 2.06328 12.2789 2.03959 12.4159 1.95645C12.5529 1.8733 12.7912 1.8 13.0505 1.8C13.8014 1.8 14.4005 2.39909 14.4005 3.15C14.4005 3.45759 14.2907 3.72926 14.1474 3.92168C14.0041 4.1141 13.9405 4.30446 13.94 4.5C13.94 4.99706 14.3429 5.4 14.84 5.4H14.8506C15.6015 5.4 16.2006 5.99908 16.2006 6.75V9.45C16.2006 10.0419 15.826 10.535 15.3006 10.7191V7.65C15.3006 7.40147 15.0991 7.2 14.8506 7.2C14.602 7.2 14.4005 7.40147 14.4005 7.65V13.3857L15.3006 12.4857V11.6543H15.3023C16.3248 11.4435 17.1006 10.5326 17.1006 9.45V6.75C17.1006 5.51269 16.0879 4.5 14.8506 4.5H14.84C15.126 4.12267 15.3006 3.65703 15.3006 3.15C15.3006 2.31896 14.8381 1.59722 14.1632 1.20762C14.0112 1.11985 13.8495 1.05071 13.6781 1.0002C13.6545 0.992937 13.6316 0.985586 13.6077 0.979102C13.4283 0.932639 13.2439 0.9 13.0505 0.9ZM17.5366 11.6965C17.4198 11.6997 17.3089 11.7483 17.2272 11.8318L12.1452 16.9137L9.76326 14.5318C9.33911 14.0901 8.68516 14.744 9.1269 15.1682L11.827 17.8682C12.0028 18.0438 12.2876 18.0438 12.4634 17.8682L17.8636 12.4682C18.1563 12.182 17.9459 11.6853 17.5366 11.6965ZM8.55032 11.7C8.30178 11.7 8.1003 11.9015 8.1003 12.15V14.6496C8.1468 14.3435 8.28858 14.0834 8.48352 13.8885C8.62418 13.7478 8.8 13.6362 9.00034 13.565V12.15C9.00034 11.9015 8.79886 11.7 8.55032 11.7ZM13.0505 11.7C12.802 11.7 12.6005 11.9015 12.6005 12.15V13.4191V15.1857L13.5005 14.2857V12.15C13.5005 11.9015 13.299 11.7 13.0505 11.7Z" fill="white"/>
</svg>
