<svg width="11" height="11" viewBox="0 0 11 11" fill="none" xmlns="http://www.w3.org/2000/svg">
<path d="M5.92373 0.134469C5.84539 0.0487995 5.73469 0 5.61859 0C5.50249 0 5.3918 0.0487995 5.31346 0.134469L3.10832 2.54633C2.95424 2.71485 2.96594 2.97638 3.13447 3.13047C3.303 3.28455 3.56453 3.27284 3.71861 3.10431L5.20513 1.47843V7.58013C5.20513 7.80847 5.39025 7.99359 5.61859 7.99359C5.84693 7.99359 6.03205 7.80847 6.03205 7.58013V1.47843L7.51859 3.10431C7.67267 3.27284 7.9342 3.28455 8.10272 3.13047C8.27125 2.97638 8.28294 2.71485 8.12886 2.54633L5.92373 0.134469Z" fill="#10898F"/>
<path d="M0.846154 7.4C0.846154 7.17909 0.65674 7 0.423077 7C0.18942 7 2.95563e-07 7.17909 2.95563e-07 7.4V7.42928C-1.09865e-05 8.15867 -2.2309e-05 8.74656 0.0657295 9.20896C0.133997 9.68901 0.280038 10.0932 0.619582 10.4142C0.959127 10.7353 1.38664 10.8733 1.8944 10.9379C2.38346 11 3.00528 11 3.77674 11H7.22328C7.99474 11 8.61655 11 9.10563 10.9379C9.61338 10.8733 10.0409 10.7353 10.3804 10.4142C10.72 10.0932 10.866 9.68901 10.9343 9.20896C11 8.74656 11 8.15867 11 7.42928V7.4C11 7.17909 10.8106 7 10.5769 7C10.3433 7 10.1538 7.17909 10.1538 7.4C10.1538 8.16555 10.1529 8.69947 10.0957 9.10235C10.04 9.49371 9.93825 9.70091 9.7821 9.84853C9.62596 9.99616 9.40681 10.0924 8.99287 10.145C8.56674 10.1991 8.00202 10.2 7.19231 10.2H3.80769C2.99797 10.2 2.43324 10.1991 2.00714 10.145C1.59322 10.0924 1.37402 9.99616 1.2179 9.84853C1.06178 9.70091 0.95999 9.49371 0.904341 9.10235C0.847051 8.69947 0.846154 8.16555 0.846154 7.4Z" fill="#10898F"/>
</svg>
