<svg width="15" height="16" viewBox="0 0 15 16" fill="none" xmlns="http://www.w3.org/2000/svg">
<path fill-rule="evenodd" clip-rule="evenodd" d="M3.86818 1.57723C4.76821 0.50771 6.04317 0 7.48622 0C8.96255 0 10.23 0.59744 11.113 1.68626C11.8974 2.6534 12.3412 3.9597 12.4215 5.47825C12.4437 5.48149 12.4671 5.48488 12.4917 5.48847L12.5074 5.49075C12.6363 5.50946 12.7909 5.53221 12.9517 5.56335C13.5465 5.67865 14.5611 5.96956 14.9107 7.05973C15.0861 7.60731 14.998 8.11497 14.6915 8.51703C14.4269 8.86423 14.0491 9.06438 13.7795 9.18591C13.6449 9.24663 13.5115 9.29851 13.3991 9.34133C13.6621 10.0546 14.1203 10.7884 14.6274 11.4531C15.1049 12.0791 14.9786 12.8728 14.7317 13.3897C14.4845 13.9076 13.9497 14.4998 13.172 14.5336C12.7319 14.5527 12.2697 14.5978 11.8098 14.6815C11.602 14.7194 11.3568 14.8027 11.0521 14.9287C10.8705 15.0038 10.7038 15.0781 10.524 15.1583C10.3811 15.222 10.2298 15.2894 10.0559 15.364C9.33963 15.6712 8.46055 16 7.48622 16C6.51183 16 5.63276 15.6712 4.91645 15.364C4.74262 15.2894 4.59134 15.222 4.44843 15.1583C4.26856 15.0781 4.10193 15.0038 3.92027 14.9287C3.61562 14.8027 3.37044 14.7194 3.16266 14.6815C2.70268 14.5978 2.24054 14.5527 1.80043 14.5336C1.02275 14.4998 0.487826 13.9076 0.240652 13.3897C-0.00612598 12.8728 -0.132465 12.0791 0.34505 11.4531C0.855286 10.7842 1.31608 10.0453 1.57819 9.32785C1.47664 9.28693 1.35751 9.23794 1.23674 9.18141C0.973007 9.05791 0.615292 8.86088 0.35162 8.53021C0.0563013 8.15985 -0.0735322 7.68229 0.0417831 7.13524C0.288576 5.96444 1.38923 5.67187 1.97129 5.56253C2.13655 5.53149 2.29678 5.50884 2.4318 5.49009C2.44082 5.48884 2.44969 5.4876 2.45841 5.4864C2.49068 5.48192 2.52094 5.47772 2.54946 5.47371C2.62514 3.85444 3.0659 2.53058 3.86818 1.57723ZM5.0328 2.55883C4.45266 3.24821 4.06032 4.35708 4.06032 5.98639V6.0665L4.04367 6.14484C3.95884 6.54415 3.65256 6.73036 3.50035 6.80206C3.33996 6.87764 3.16759 6.91512 3.04568 6.93775C2.92693 6.95985 2.7946 6.97821 2.67612 6.99459C2.66429 6.99619 2.65259 6.99787 2.64106 6.99947C2.50604 7.01821 2.37804 7.03657 2.25219 7.06019C1.66982 7.1696 1.56013 7.31444 1.53161 7.44975C1.51131 7.54606 1.52884 7.56541 1.53893 7.57653C1.53995 7.57768 1.54173 7.57973 1.54173 7.57973C1.58231 7.63063 1.67976 7.70644 1.88199 7.80114C1.97672 7.84549 2.07633 7.8861 2.18713 7.93044C2.19593 7.93402 2.20492 7.9376 2.21408 7.94126C2.31055 7.97989 2.42567 8.0259 2.52742 8.0736C2.62702 8.12031 2.79407 8.20396 2.93483 8.33912C3.09923 8.49691 3.29862 8.80495 3.20219 9.21044C2.92465 10.3775 2.22448 11.5003 1.55604 12.3768C1.55362 12.3813 1.54365 12.4037 1.54384 12.4568C1.5441 12.5295 1.56477 12.6286 1.61454 12.7329C1.66425 12.837 1.72918 12.9173 1.7879 12.9656C1.83623 13.0053 1.86352 13.0107 1.86709 13.0113C2.36277 13.0328 2.89513 13.084 3.43536 13.1824C3.80337 13.2494 4.16677 13.3819 4.50181 13.5205C4.68645 13.5968 4.89863 13.691 5.10467 13.7826C5.2487 13.8465 5.38972 13.9092 5.51624 13.9634C6.20022 14.2568 6.83896 14.4762 7.48622 14.4762C8.13349 14.4762 8.77215 14.2568 9.45618 13.9634C9.58271 13.9092 9.72371 13.8465 9.86775 13.7826C10.0738 13.691 10.2859 13.5968 10.4706 13.5205C10.8056 13.3819 11.1691 13.2494 11.5371 13.1824C12.0773 13.084 12.6097 13.0328 13.1053 13.0113C13.1089 13.0107 13.1362 13.0053 13.1845 12.9656C13.2432 12.9173 13.3082 12.837 13.3579 12.7329C13.4076 12.6286 13.4283 12.5295 13.4285 12.4568C13.4288 12.386 13.411 12.3698 13.4171 12.3778C12.7485 11.5013 12.0478 10.378 11.7702 9.21044C11.6671 8.77699 11.9028 8.46347 12.0648 8.31939C12.2088 8.19124 12.3785 8.11154 12.4815 8.06621C12.5836 8.02118 12.6996 7.97722 12.7988 7.93958C12.8113 7.93478 12.8236 7.93013 12.8356 7.92564C12.9514 7.88152 13.056 7.84084 13.1541 7.79657C13.3591 7.70415 13.447 7.6336 13.4772 7.59756C13.4761 7.58507 13.4725 7.56175 13.4608 7.52526C13.3916 7.30933 13.1958 7.16282 12.6621 7.05935C12.5407 7.03581 12.4183 7.0176 12.2889 6.99878C12.2792 6.99733 12.2694 6.99596 12.2594 6.99451C12.145 6.97798 12.0156 6.95924 11.8993 6.93638C11.7814 6.9133 11.611 6.87436 11.4513 6.7949C11.2911 6.71512 11.0096 6.52541 10.9287 6.14484L10.9121 6.0665V5.98639C10.9121 4.50125 10.5258 3.38021 9.93078 2.64654C9.34831 1.92829 8.52221 1.52381 7.48622 1.52381C6.41697 1.52381 5.59828 1.88685 5.0328 2.55883Z" fill="black"/>
</svg>
