<svg width="14" height="14" viewBox="0 0 19 19" fill="none" xmlns="http://www.w3.org/2000/svg">
<path d="M18 14V16C18 16.5304 17.7441 17.0391 17.2887 17.4142C16.8332 17.7893 16.2155 18 15.5714 18H3.42857C2.78447 18 2.16676 17.7893 1.71131 17.4142C1.25587 17.0391 1 16.5304 1 16V7C1 6.46957 1.25587 5.96086 1.71131 5.58579C2.16676 5.21071 2.78447 5 3.42857 5H5.85714" stroke="#10898F" stroke-width="2" stroke-linecap="round" stroke-linejoin="round"/>
<path d="M3.42857 1H7.07143L9.5 3H15.5714C16.2155 3 16.8332 3.21071 17.2887 3.58579C17.7441 3.96086 18 4.46957 18 5V12C18 12.5304 17.7441 13.0391 17.2887 13.4142C16.8332 13.7893 16.2155 14 15.5714 14H3.42857C2.78447 14 2.16676 13.7893 1.71131 13.4142C1.25587 13.0391 1 12.5304 1 12V3C1 2.46957 1.25587 1.96086 1.71131 1.58579C2.16676 1.21071 2.78447 1 3.42857 1Z" stroke="#10898F" stroke-width="2" stroke-linecap="round" stroke-linejoin="round"/>
</svg>
