<svg width="14" height="14" viewBox="0 0 22 21" fill="none" xmlns="http://www.w3.org/2000/svg">
<path d="M6.95928 19.928C5.33337 20.721 3.53239 21.0843 1.72715 20.9835C1.42134 20.9835 1.1005 20.9771 0.775368 20.9642C0.627435 20.9597 0.483707 20.9138 0.360446 20.8316C0.237185 20.7495 0.13931 20.6344 0.0778946 20.4994C0.0139492 20.3657 -0.0113986 20.2167 0.00472082 20.0694C0.0208402 19.922 0.077783 19.7821 0.169103 19.6655C1.16689 18.4648 1.92204 17.0808 2.39243 15.5908C1.27653 13.5786 0.851684 11.2542 1.1834 8.97603C1.51512 6.69781 2.58498 4.59226 4.22804 2.984C5.8711 1.37574 7.99612 0.354082 10.2755 0.076529C12.5548 -0.201024 14.8619 0.280946 16.8411 1.44813C18.8203 2.61532 20.3616 4.4029 21.2275 6.53529C22.0934 8.66768 22.2357 11.0265 21.6325 13.248C21.0293 15.4695 19.7141 17.4303 17.8897 18.8283C16.0653 20.2262 13.8329 20.9835 11.5369 20.9835C9.95055 20.9875 8.3845 20.6264 6.95928 19.928ZM7.30587 18.2936C9.1883 19.3204 11.3784 19.6274 13.4694 19.1576C15.5605 18.6878 17.4105 17.473 18.676 15.739C19.9415 14.0049 20.5365 11.8693 20.3505 9.72858C20.1645 7.58791 19.2101 5.58764 17.6647 4.09914C16.1192 2.61064 14.0875 1.73504 11.9469 1.63491C9.80631 1.53479 7.70219 2.21693 6.02522 3.5547C4.34824 4.89247 3.21234 6.79498 2.82841 8.90899C2.44448 11.023 2.8386 13.2049 3.93761 15.0496C4.04104 15.2224 4.07626 15.4277 4.03633 15.6252C3.71674 16.9642 3.1485 18.2308 2.36132 19.3588C3.79406 19.4067 5.21183 19.0539 6.45602 18.3399C6.59135 18.2443 6.75295 18.1931 6.9185 18.1936C7.05393 18.194 7.1871 18.2284 7.30587 18.2936ZM7.24471 13.4518C7.03127 13.4518 6.82657 13.3667 6.67564 13.2154C6.52472 13.0641 6.43993 12.8588 6.43993 12.6448C6.43993 12.4308 6.52472 12.2255 6.67564 12.0742C6.82657 11.9228 7.03127 11.8378 7.24471 11.8378H14.756C14.9694 11.8378 15.1741 11.9228 15.325 12.0742C15.476 12.2255 15.5607 12.4308 15.5607 12.6448C15.5607 12.8588 15.476 13.0641 15.325 13.2154C15.1741 13.3667 14.9694 13.4518 14.756 13.4518H7.24471ZM7.24471 9.14789C7.03127 9.14789 6.82657 9.06287 6.67564 8.91154C6.52472 8.7602 6.43993 8.55494 6.43993 8.34092C6.43993 8.1269 6.52472 7.92164 6.67564 7.7703C6.82657 7.61896 7.03127 7.53394 7.24471 7.53394H12.6099C12.8233 7.53394 13.028 7.61896 13.179 7.7703C13.3299 7.92164 13.4147 8.1269 13.4147 8.34092C13.4147 8.55494 13.3299 8.7602 13.179 8.91154C13.028 9.06287 12.8233 9.14789 12.6099 9.14789H7.24471Z" fill="black"/>
</svg>
