<svg width="14" height="14" viewBox="0 0 20 23" fill="none" xmlns="http://www.w3.org/2000/svg">
<path fill-rule="evenodd" clip-rule="evenodd" d="M2.89635 11.6669C2.7472 7.58998 5.92459 4.16098 10.0006 4C14.0768 4.16098 17.2542 7.58998 17.105 11.6669C17.105 13.3603 18.9447 15.0099 18.9987 16.7071C18.9987 16.7311 18.9987 16.755 18.9987 16.7791C19.0385 17.8664 18.1909 18.7809 17.1037 18.8234H13C13.0038 19.6566 12.6898 20.4599 12.122 21.0696C11.576 21.6626 10.8067 22 10.0006 22C9.1946 22 8.42547 21.6626 7.87944 21.0696C7.31154 20.4599 6.99752 19.6566 7.00133 18.8234H2.89635C1.8092 18.7809 0.961539 17.8664 1.00135 16.7791C1.00135 16.755 1.00135 16.7311 1.00135 16.7071C1.05663 15.015 2.89635 13.3616 2.89635 11.6669Z" stroke="black" stroke-width="2" stroke-linecap="round" stroke-linejoin="round"/>
<path d="M6.99184 18.0039C6.44407 18.0039 6 18.4507 6 19.0019C6 19.5531 6.44407 20 6.99184 20V18.0039ZM13.0082 20C13.5559 20 14 19.5531 14 19.0019C14 18.4507 13.5559 18.0039 13.0082 18.0039V20ZM11.2894 1.99614C11.8371 1.99614 12.2812 1.54928 12.2812 0.99807C12.2812 0.446856 11.8371 0 11.2894 0V1.99614ZM8.71059 0C8.16283 0 7.71876 0.446856 7.71876 0.99807C7.71876 1.54928 8.16283 1.99614 8.71059 1.99614V0ZM6.99184 20H13.0082V18.0039H6.99184V20ZM11.2894 0H8.71059V1.99614H11.2894V0Z" fill="black"/>
</svg>
