<svg wwidth="14" height="14" viewBox="0 0 21 21" fill="none" xmlns="http://www.w3.org/2000/svg">
<mask id="path-1-inside-1_311_118" fill="white">
<path d="M3.7107 11.07C3.83979 11.0175 3.97862 10.9903 4.11897 10.9898C4.25932 10.9893 4.39835 11.0156 4.52784 11.0672C4.65733 11.1188 4.77464 11.1945 4.87286 11.29C4.97107 11.3855 5.04819 11.4988 5.09965 11.6231C5.15111 11.7475 5.17587 11.8804 5.17246 12.014C5.16905 12.1477 5.13755 12.2793 5.07981 12.4011C5.02208 12.523 4.93928 12.6325 4.83632 12.7234C4.73335 12.8142 4.61231 12.8845 4.48035 12.93C3.77847 13.1934 3.17607 13.6519 2.75153 14.2458C2.32699 14.8397 2.09997 15.5415 2.1 16.26V18C2.1 18.2652 2.21062 18.5196 2.40754 18.7071C2.60445 18.8946 2.87152 19 3.15 19H11.55C11.8285 19 12.0955 18.8946 12.2925 18.7071C12.4894 18.5196 12.6 18.2652 12.6 18V16.353C12.6001 15.6115 12.3636 14.8874 11.9218 14.2768C11.48 13.6662 10.8538 13.1979 10.1262 12.934C9.99342 12.8901 9.87124 12.8213 9.7669 12.7316C9.66257 12.6419 9.5782 12.5332 9.5188 12.4119C9.4594 12.2905 9.42619 12.1591 9.42112 12.0253C9.41605 11.8916 9.43923 11.7582 9.48929 11.6331C9.53935 11.508 9.61527 11.3938 9.71254 11.2972C9.80982 11.2006 9.92647 11.1235 10.0556 11.0706C10.1847 11.0177 10.3237 10.9901 10.4642 10.9893C10.6047 10.9885 10.744 11.0146 10.8738 11.066C11.999 11.4742 12.9674 12.1983 13.6507 13.1425C14.334 14.0867 14.6999 15.2063 14.7 16.353V18C14.7 18.7956 14.3681 19.5587 13.7774 20.1213C13.1866 20.6839 12.3854 21 11.55 21H3.15C2.31457 21 1.51335 20.6839 0.922614 20.1213C0.331874 19.5587 0 18.7956 0 18L0 16.26C0.000144481 15.1402 0.354141 14.0463 1.01594 13.1206C1.67774 12.195 2.61671 11.4805 3.7107 11.07ZM7.35 1C8.46391 1 9.5322 1.42143 10.3198 2.17157C11.1075 2.92172 11.55 3.93913 11.55 5V7C11.55 8.06087 11.1075 9.07828 10.3198 9.82843C9.5322 10.5786 8.46391 11 7.35 11C6.23609 11 5.1678 10.5786 4.38015 9.82843C3.5925 9.07828 3.15 8.06087 3.15 7V5C3.15 3.93913 3.5925 2.92172 4.38015 2.17157C5.1678 1.42143 6.23609 1 7.35 1ZM7.35 3C6.79305 3 6.2589 3.21071 5.86508 3.58579C5.47125 3.96086 5.25 4.46957 5.25 5V7C5.25 7.53043 5.47125 8.03914 5.86508 8.41421C6.2589 8.78929 6.79305 9 7.35 9C7.90695 9 8.4411 8.78929 8.83492 8.41421C9.22875 8.03914 9.45 7.53043 9.45 7V5C9.45 4.46957 9.22875 3.96086 8.83492 3.58579C8.4411 3.21071 7.90695 3 7.35 3ZM16.8 20C16.5215 20 16.2544 19.8946 16.0575 19.7071C15.8606 19.5196 15.75 19.2652 15.75 19C15.75 18.7348 15.8606 18.4804 16.0575 18.2929C16.2544 18.1054 16.5215 18 16.8 18H17.85C18.1285 18 18.3955 17.8946 18.5925 17.7071C18.7894 17.5196 18.9 17.2652 18.9 17V15.162C18.9 14.4512 18.6651 13.7583 18.2286 13.1817C17.7922 12.605 17.1763 12.1738 16.4682 11.949C16.3373 11.9075 16.2164 11.8419 16.1121 11.7558C16.0079 11.6698 15.9225 11.5651 15.8608 11.4476C15.7991 11.3301 15.7622 11.2022 15.7524 11.0712C15.7426 10.9402 15.76 10.8086 15.8035 10.684C15.8471 10.5594 15.916 10.4441 16.0064 10.3449C16.0967 10.2456 16.2067 10.1643 16.33 10.1055C16.4534 10.0467 16.5876 10.0117 16.7252 10.0023C16.8628 9.99296 17.0009 10.0095 17.1318 10.051C18.2582 10.4085 19.238 11.0945 19.9322 12.0118C20.6265 12.9291 21.0001 14.0312 21 15.162V17C21 17.7956 20.6681 18.5587 20.0774 19.1213C19.4866 19.6839 18.6854 20 17.85 20H16.8ZM13.65 2C13.3715 2 13.1045 1.89464 12.9075 1.70711C12.7106 1.51957 12.6 1.26522 12.6 1C12.6 0.734784 12.7106 0.48043 12.9075 0.292893C13.1045 0.105357 13.3715 0 13.65 0C14.7639 0 15.8322 0.421427 16.6198 1.17157C17.4075 1.92172 17.85 2.93913 17.85 4V6C17.85 7.06087 17.4075 8.07828 16.6198 8.82843C15.8322 9.57857 14.7639 10 13.65 10C13.3715 10 13.1045 9.89464 12.9075 9.70711C12.7106 9.51957 12.6 9.26522 12.6 9C12.6 8.73478 12.7106 8.48043 12.9075 8.29289C13.1045 8.10536 13.3715 8 13.65 8C14.207 8 14.7411 7.78929 15.1349 7.41421C15.5287 7.03914 15.75 6.53043 15.75 6V4C15.75 3.46957 15.5287 2.96086 15.1349 2.58579C14.7411 2.21071 14.207 2 13.65 2Z"/>
</mask>
<path d="M3.7107 11.07C3.83979 11.0175 3.97862 10.9903 4.11897 10.9898C4.25932 10.9893 4.39835 11.0156 4.52784 11.0672C4.65733 11.1188 4.77464 11.1945 4.87286 11.29C4.97107 11.3855 5.04819 11.4988 5.09965 11.6231C5.15111 11.7475 5.17587 11.8804 5.17246 12.014C5.16905 12.1477 5.13755 12.2793 5.07981 12.4011C5.02208 12.523 4.93928 12.6325 4.83632 12.7234C4.73335 12.8142 4.61231 12.8845 4.48035 12.93C3.77847 13.1934 3.17607 13.6519 2.75153 14.2458C2.32699 14.8397 2.09997 15.5415 2.1 16.26V18C2.1 18.2652 2.21062 18.5196 2.40754 18.7071C2.60445 18.8946 2.87152 19 3.15 19H11.55C11.8285 19 12.0955 18.8946 12.2925 18.7071C12.4894 18.5196 12.6 18.2652 12.6 18V16.353C12.6001 15.6115 12.3636 14.8874 11.9218 14.2768C11.48 13.6662 10.8538 13.1979 10.1262 12.934C9.99342 12.8901 9.87124 12.8213 9.7669 12.7316C9.66257 12.6419 9.5782 12.5332 9.5188 12.4119C9.4594 12.2905 9.42619 12.1591 9.42112 12.0253C9.41605 11.8916 9.43923 11.7582 9.48929 11.6331C9.53935 11.508 9.61527 11.3938 9.71254 11.2972C9.80982 11.2006 9.92647 11.1235 10.0556 11.0706C10.1847 11.0177 10.3237 10.9901 10.4642 10.9893C10.6047 10.9885 10.744 11.0146 10.8738 11.066C11.999 11.4742 12.9674 12.1983 13.6507 13.1425C14.334 14.0867 14.6999 15.2063 14.7 16.353V18C14.7 18.7956 14.3681 19.5587 13.7774 20.1213C13.1866 20.6839 12.3854 21 11.55 21H3.15C2.31457 21 1.51335 20.6839 0.922614 20.1213C0.331874 19.5587 0 18.7956 0 18L0 16.26C0.000144481 15.1402 0.354141 14.0463 1.01594 13.1206C1.67774 12.195 2.61671 11.4805 3.7107 11.07ZM7.35 1C8.46391 1 9.5322 1.42143 10.3198 2.17157C11.1075 2.92172 11.55 3.93913 11.55 5V7C11.55 8.06087 11.1075 9.07828 10.3198 9.82843C9.5322 10.5786 8.46391 11 7.35 11C6.23609 11 5.1678 10.5786 4.38015 9.82843C3.5925 9.07828 3.15 8.06087 3.15 7V5C3.15 3.93913 3.5925 2.92172 4.38015 2.17157C5.1678 1.42143 6.23609 1 7.35 1ZM7.35 3C6.79305 3 6.2589 3.21071 5.86508 3.58579C5.47125 3.96086 5.25 4.46957 5.25 5V7C5.25 7.53043 5.47125 8.03914 5.86508 8.41421C6.2589 8.78929 6.79305 9 7.35 9C7.90695 9 8.4411 8.78929 8.83492 8.41421C9.22875 8.03914 9.45 7.53043 9.45 7V5C9.45 4.46957 9.22875 3.96086 8.83492 3.58579C8.4411 3.21071 7.90695 3 7.35 3ZM16.8 20C16.5215 20 16.2544 19.8946 16.0575 19.7071C15.8606 19.5196 15.75 19.2652 15.75 19C15.75 18.7348 15.8606 18.4804 16.0575 18.2929C16.2544 18.1054 16.5215 18 16.8 18H17.85C18.1285 18 18.3955 17.8946 18.5925 17.7071C18.7894 17.5196 18.9 17.2652 18.9 17V15.162C18.9 14.4512 18.6651 13.7583 18.2286 13.1817C17.7922 12.605 17.1763 12.1738 16.4682 11.949C16.3373 11.9075 16.2164 11.8419 16.1121 11.7558C16.0079 11.6698 15.9225 11.5651 15.8608 11.4476C15.7991 11.3301 15.7622 11.2022 15.7524 11.0712C15.7426 10.9402 15.76 10.8086 15.8035 10.684C15.8471 10.5594 15.916 10.4441 16.0064 10.3449C16.0967 10.2456 16.2067 10.1643 16.33 10.1055C16.4534 10.0467 16.5876 10.0117 16.7252 10.0023C16.8628 9.99296 17.0009 10.0095 17.1318 10.051C18.2582 10.4085 19.238 11.0945 19.9322 12.0118C20.6265 12.9291 21.0001 14.0312 21 15.162V17C21 17.7956 20.6681 18.5587 20.0774 19.1213C19.4866 19.6839 18.6854 20 17.85 20H16.8ZM13.65 2C13.3715 2 13.1045 1.89464 12.9075 1.70711C12.7106 1.51957 12.6 1.26522 12.6 1C12.6 0.734784 12.7106 0.48043 12.9075 0.292893C13.1045 0.105357 13.3715 0 13.65 0C14.7639 0 15.8322 0.421427 16.6198 1.17157C17.4075 1.92172 17.85 2.93913 17.85 4V6C17.85 7.06087 17.4075 8.07828 16.6198 8.82843C15.8322 9.57857 14.7639 10 13.65 10C13.3715 10 13.1045 9.89464 12.9075 9.70711C12.7106 9.51957 12.6 9.26522 12.6 9C12.6 8.73478 12.7106 8.48043 12.9075 8.29289C13.1045 8.10536 13.3715 8 13.65 8C14.207 8 14.7411 7.78929 15.1349 7.41421C15.5287 7.03914 15.75 6.53043 15.75 6V4C15.75 3.46957 15.5287 2.96086 15.1349 2.58579C14.7411 2.21071 14.207 2 13.65 2Z" fill="black" stroke="black" stroke-width="2" mask="url(#path-1-inside-1_311_118)"/>
</svg>
