<svg width="16" height="16" viewBox="0 0 24 18" fill="none" xmlns="http://www.w3.org/2000/svg">
<path d="M18.3311 7.16749L18.3316 7.16708C18.5347 6.99662 18.6618 6.75245 18.685 6.48829C18.7081 6.22417 18.6254 5.96169 18.455 5.75854L18.3311 7.16749ZM18.3311 7.16749C18.2505 7.23529 18.0854 7.30381 17.7863 7.32168M18.3311 7.16749L17.7863 7.32168M17.7863 7.32168L18.2529 5.6045C18.3572 5.66456 18.4206 5.71753 18.4549 5.75841L17.7863 7.32168ZM14.1439 17.0291L12.0212 14.908L12.729 14.2002L13.7894 15.2606L14.143 15.6142L14.4966 15.2606L20.6616 9.09564L20.7495 9.00768L20.786 8.88877L21.876 5.33677L21.9643 5.04915L21.7515 4.83646L19.2675 2.35346L19.0538 2.13987L18.7653 2.2297L17.9749 2.47585L17.1754 1.67641L18.4684 1.27356C18.4684 1.27356 18.4684 1.27356 18.4684 1.27356C18.7295 1.19243 19.0078 1.18421 19.2732 1.24977C19.5386 1.31533 19.7811 1.4522 19.9744 1.64556L19.9744 1.64564L22.4574 4.12862C22.4574 4.12863 22.4574 4.12863 22.4574 4.12864C22.65 4.32121 22.7865 4.56256 22.8523 4.82681C22.9181 5.09106 22.9107 5.36825 22.8309 5.62862L21.6324 9.54057L14.1439 17.0291ZM16.0934 3.42257L16.0934 3.42262C16.286 3.6152 16.4225 3.85655 16.4883 4.12081C16.5541 4.38503 16.5467 4.66217 16.467 4.92252C16.467 4.92255 16.4669 4.92259 16.4669 4.92262L15.2684 8.83155L7.77993 16.321L0.707174 9.25006L8.1653 1.79288L12.1044 0.567564C12.1044 0.56755 12.1045 0.567535 12.1045 0.56752C12.3656 0.486429 12.6438 0.478216 12.9092 0.543768C13.1746 0.609332 13.4171 0.746195 13.6104 0.939564L13.7568 1.08609H13.7578L16.0934 3.42257ZM2.47545 8.89653L2.12189 9.25008L2.47545 9.60364L7.42545 14.5536L7.77903 14.9072L8.13258 14.5536L14.2966 8.38861L14.3845 8.30066L14.421 8.18177L15.511 4.62977L15.5993 4.34215L15.3865 4.12946L12.9025 1.64646L12.6889 1.43295L12.4005 1.52264L8.81551 2.63764L8.69769 2.67429L8.61045 2.76153L2.47545 8.89653ZM10.5975 6.41176L10.5801 6.39526C10.494 6.30727 10.4249 6.20408 10.3763 6.09085C10.3238 5.96884 10.2963 5.83762 10.2951 5.70484C10.294 5.57206 10.3193 5.44038 10.3695 5.31749C10.4198 5.19459 10.4941 5.08294 10.588 4.98905C10.6819 4.89515 10.7935 4.8209 10.9164 4.77062C11.0393 4.72034 11.171 4.69504 11.3038 4.69619C11.4365 4.69734 11.5678 4.72493 11.6898 4.77734C11.811 4.82941 11.9207 4.90496 12.0126 4.99961C12.1905 5.18854 12.288 5.43924 12.2844 5.69877C12.2808 5.95915 12.1759 6.20786 11.9918 6.39204C11.8077 6.57621 11.559 6.68132 11.2986 6.685C11.0383 6.68868 10.7867 6.59065 10.5975 6.41176Z" fill="black" stroke="black"/>
</svg>
