<svg width="14" height="14" viewBox="0 0 20 20" fill="none" xmlns="http://www.w3.org/2000/svg">
<path d="M2 7.5H1.5V8V18V18.5H2H6.56361L6.45213 18.6912L6.88425 18.943L7.84006 19.5H2C1.60218 19.5 1.22064 19.342 0.93934 19.0607C0.658035 18.7794 0.5 18.3978 0.5 18V8C0.5 7.60218 0.658035 7.22064 0.93934 6.93934C1.22064 6.65804 1.60218 6.5 2 6.5H4H4.5V6V2C4.5 1.60218 4.65804 1.22064 4.93934 0.93934C5.22064 0.658035 5.60218 0.5 6 0.5H18C18.3978 0.5 18.7794 0.658035 19.0607 0.93934C19.342 1.22064 19.5 1.60218 19.5 2V7.49207L19.0296 6.98013C19.0295 6.98002 19.0294 6.97991 19.0293 6.9798C18.8684 6.80441 18.691 6.64682 18.5 6.50887V2V1.5H18H6H5.5V2V6V6.5H6H6.5H7H9H9.5H10.5H11H13H13.5H14C14.3743 6.5 14.7342 6.6399 15.0097 6.89073L15.032 6.91188C15.1143 6.98984 15.1877 7.07699 15.2505 7.17166C15.412 7.41547 15.5 7.7032 15.5 8V8.457V9.2716V12V12.5H16H18H18.5V12V10.3292L18.6144 10.2241L19.5 9.41003V12C19.5 12.3978 19.342 12.7794 19.0607 13.0607C18.7794 13.342 18.3978 13.5 18 13.5H16H15.5073L15.0292 12.9797L15.029 12.9795C14.8685 12.8049 14.6911 12.6477 14.5 12.5099V8V7.5H14H2ZM15.5 15.41V18C15.5 18.3978 15.342 18.7794 15.0607 19.0607C14.7794 19.342 14.3978 19.5 14 19.5H9.45333L10.0366 18.5H14H14.5V18V16.3292L14.6144 16.2241L15.5 15.41ZM15.0426 14.4722L14.5 14.971V13.8818L15.0426 14.4722ZM8.68391 18.8343L8.11018 18.5H8.87893L8.68391 18.8343ZM13.3327 13.0087C13.3894 13.03 13.4452 13.0534 13.5 13.0786V14.2749C13.3517 14.1304 13.1749 14.0179 12.9806 13.945C12.7607 13.8624 12.5245 13.8326 12.291 13.858C12.0575 13.8834 11.8333 13.9632 11.6363 14.0911C11.4393 14.2191 11.2751 14.3914 11.1569 14.5944L9.46219 17.5H8.30435L10.2929 14.0899L10.293 14.0898C10.4901 13.7516 10.7639 13.4645 11.0922 13.2514C11.4206 13.0384 11.7944 12.9055 12.1836 12.8633C12.5727 12.8211 12.9663 12.871 13.3327 13.0087ZM18.5 7.88176L19.0426 8.47221L18.5 8.97095V7.88176ZM11.7678 4.23223C12.117 4.58142 12.3522 5.02328 12.4495 5.5H11.4142C11.3403 5.29105 11.2204 5.09904 11.0607 4.93934C10.7794 4.65804 10.3978 4.5 10 4.5C9.60217 4.5 9.22064 4.65804 8.93934 4.93934C8.77964 5.09904 8.65967 5.29105 8.58579 5.5H7.5505C7.64782 5.02328 7.88304 4.58142 8.23223 4.23223C8.70107 3.76339 9.33696 3.5 10 3.5C10.663 3.5 11.2989 3.76339 11.7678 4.23223ZM17.5 7.07713V8.2748C17.2863 8.06634 17.0146 7.92595 16.7196 7.8726C16.6452 7.85915 16.5703 7.85141 16.4955 7.84927C16.4743 7.49385 16.3786 7.1581 16.224 6.85781C16.4902 6.83317 16.76 6.85132 17.0232 6.913C17.1881 6.95166 17.3478 7.0068 17.5 7.07713ZM6 14.5C5.33696 14.5 4.70107 14.2366 4.23223 13.7678C3.76339 13.2989 3.5 12.663 3.5 12C3.5 11.337 3.76339 10.7011 4.23223 10.2322C4.70107 9.76339 5.33696 9.5 6 9.5C6.66304 9.5 7.29893 9.76339 7.76777 10.2322C8.23661 10.7011 8.5 11.337 8.5 12C8.5 12.663 8.23661 13.2989 7.76777 13.7678C7.29893 14.2366 6.66304 14.5 6 14.5ZM6 13.5C6.39782 13.5 6.77936 13.342 7.06066 13.0607C7.34196 12.7794 7.5 12.3978 7.5 12C7.5 11.6022 7.34196 11.2206 7.06066 10.9393C6.77936 10.658 6.39782 10.5 6 10.5C5.60218 10.5 5.22064 10.658 4.93934 10.9393C4.65804 11.2206 4.5 11.6022 4.5 12C4.5 12.3978 4.65804 12.7794 4.93934 13.0607C5.22064 13.342 5.60218 13.5 6 13.5Z" fill="black" stroke="black"/>
</svg>
